<?xml version="1.0" encoding="UTF-8"?>
<svg width="567px" height="159px" viewBox="0 0 567 159" version="1.1" xmlns="http://www.w3.org/2000/svg" xmlns:xlink="http://www.w3.org/1999/xlink">
    <!-- Generator: Sketch 51.3 (57544) - http://www.bohemiancoding.com/sketch -->
    <title>Logo</title>
    <desc>Created with Sketch.</desc>
    <defs></defs>
    <g id="Logo" stroke="none" stroke-width="1" fill="none" fill-rule="evenodd">
        <g id="Logo/landscape" transform="translate(-220.000000, -212.000000)">
            <g id="Logo" transform="translate(146.000000, 148.000000)">
                <g id="Group">
                    <text id="New-Forms-Solution" font-family="OpenSans-Light, Open Sans" font-size="64" font-weight="300" fill="#1A579E">
                        <tspan x="320.625" y="165">New Forms </tspan>
                        <tspan x="416.195312" y="252" font-size="36">Solution</tspan>
                    </text>
                    <g id="Group-9" transform="translate(149.000000, 149.500000) rotate(-45.000000) translate(-149.000000, -149.500000) translate(44.000000, 44.000000)">
                        <rect id="Rectangle-6" x="0" y="0" width="210" height="211" rx="25"></rect>
                        <g id="Group-7" transform="translate(38.850000, 51.695000)">
                            <path d="M28.35,63.3 L28.35,42.2 L54.6,42.2 L54.6,63.3 L28.35,63.3 Z M28.35,79.125 L54.6,79.125 L54.6,105.703345 L28.35,105.703345 L28.35,79.125 Z M72.1132857,63.3 L55.1449077,42.2 L85.8529899,42.2 L101.339855,63.3 L72.1132857,63.3 Z M84.8395692,79.125 L132.3,79.125 L132.3,105.48149 L132.486967,105.736222 L106.191694,105.676144 L84.8395692,79.125 Z M132.3,63.3 L106.05,63.3 L106.05,42.2 L132.3,42.2 L132.3,63.3 Z M28.35,26.375 L28.35,0.203345492 L54.6,0.203345492 L54.6,0.268854009 L54.9068666,0.0376134389 L74.2378409,26.375 L28.35,26.375 Z M132.3,26.375 L106.05,26.375 L106.05,0 L132.3,0 L132.3,26.375 Z" id="Combined-Shape" fill="#4A90E2"></path>
                            <ellipse id="Oval-2" fill="#4A90E2" cx="7.875" cy="18.4625" rx="7.875" ry="7.9125"></ellipse>
                            <ellipse id="Oval-2" fill="#4A90E2" cx="7.875" cy="53.2775" rx="7.875" ry="7.9125"></ellipse>
                            <ellipse id="Oval-2" fill="#4A90E2" cx="7.875" cy="87.0375" rx="7.875" ry="7.9125"></ellipse>
                            <g id="Group-8" transform="translate(22.350000, 62.375000)"></g>
                        </g>
                    </g>
                </g>
            </g>
        </g>
    </g>
</svg>